<?xml version="1.0" encoding="UTF-8" standalone="no"?>
<!DOCTYPE svg PUBLIC "-//W3C//DTD SVG 1.1//EN"
 "http://www.w3.org/Graphics/SVG/1.1/DTD/svg11.dtd">
<!-- Generated by graphviz version 2.44.1 (20200629.0846)
 -->
<!-- Title: G Pages: 1 -->
<svg width="789pt" height="807pt"
 viewBox="0.00 0.00 788.94 807.43" xmlns="http://www.w3.org/2000/svg" xmlns:xlink="http://www.w3.org/1999/xlink">
<g id="graph0" class="graph" transform="scale(1 1) rotate(0) translate(4 803.43)">
<title>G</title>
<polygon fill="white" stroke="transparent" points="-4,4 -4,-803.43 784.94,-803.43 784.94,4 -4,4"/>
<!-- ++0++ -->
<g id="node1" class="node">
<title>++0++</title>
<g id="a_node1"><a xlink:href="https://github.com/nihole/wg_examples/wiki/examples_pw_0" xlink:title="++0++&#10;Alice was at&#10;home yesterday&#10;at 7 p.m.">
<ellipse fill="none" stroke="blue" cx="502.72" cy="-751.34" rx="72.66" ry="48.17"/>
<text text-anchor="middle" x="502.72" y="-770.14" font-family="Times,serif" font-size="14.00">++0++</text>
<text text-anchor="middle" x="502.72" y="-755.14" font-family="Times,serif" font-size="14.00">Alice was at</text>
<text text-anchor="middle" x="502.72" y="-740.14" font-family="Times,serif" font-size="14.00">home yesterday</text>
<text text-anchor="middle" x="502.72" y="-725.14" font-family="Times,serif" font-size="14.00">at 7 p.m.</text>
</a>
</g>
</g>
<!-- &#45;&#45;0&#45;&#45; -->
<g id="node2" class="node">
<title>&#45;&#45;0&#45;&#45;</title>
<g id="a_node2"><a xlink:href="https://github.com/nihole/wg_examples/wiki/examples_nw_0" xlink:title="&#45;&#45;0&#45;&#45;&#10;Alice was not&#10;at home yesterday&#10;at 7 p.m.">
<ellipse fill="none" stroke="red" cx="320.72" cy="-608.57" rx="82.05" ry="48.17"/>
<text text-anchor="middle" x="320.72" y="-627.37" font-family="Times,serif" font-size="14.00">&#45;&#45;0&#45;&#45;</text>
<text text-anchor="middle" x="320.72" y="-612.37" font-family="Times,serif" font-size="14.00">Alice was not</text>
<text text-anchor="middle" x="320.72" y="-597.37" font-family="Times,serif" font-size="14.00">at home yesterday</text>
<text text-anchor="middle" x="320.72" y="-582.37" font-family="Times,serif" font-size="14.00">at 7 p.m.</text>
</a>
</g>
</g>
<!-- ++0++&#45;&gt;&#45;&#45;0&#45;&#45; -->
<g id="edge3" class="edge">
<title>++0++&#45;&gt;&#45;&#45;0&#45;&#45;</title>
<path fill="none" stroke="red" d="M447.93,-707.96C425.76,-690.81 400.15,-671.01 377.75,-653.68"/>
<polygon fill="red" stroke="red" points="445.8,-710.74 455.85,-714.09 450.08,-705.2 445.8,-710.74"/>
<polygon fill="red" stroke="red" points="379.71,-650.77 369.66,-647.42 375.43,-656.31 379.71,-650.77"/>
</g>
<!-- &#45;&#45;1&#45;&#45; -->
<g id="node3" class="node">
<title>&#45;&#45;1&#45;&#45;</title>
<g id="a_node3"><a xlink:href="https://github.com/nihole/wg_examples/wiki/examples_nw_1" xlink:title="&#45;&#45;1&#45;&#45;&#10;Alice was at the&#10;theater yesterday&#10;at 7 p.m.">
<ellipse fill="none" stroke="red" cx="502.72" cy="-608.57" rx="77.15" ry="48.17"/>
<text text-anchor="middle" x="502.72" y="-627.37" font-family="Times,serif" font-size="14.00">&#45;&#45;1&#45;&#45;</text>
<text text-anchor="middle" x="502.72" y="-612.37" font-family="Times,serif" font-size="14.00">Alice was at the</text>
<text text-anchor="middle" x="502.72" y="-597.37" font-family="Times,serif" font-size="14.00">theater yesterday</text>
<text text-anchor="middle" x="502.72" y="-582.37" font-family="Times,serif" font-size="14.00">at 7 p.m.</text>
</a>
</g>
</g>
<!-- ++0++&#45;&gt;&#45;&#45;1&#45;&#45; -->
<g id="edge1" class="edge">
<title>++0++&#45;&gt;&#45;&#45;1&#45;&#45;</title>
<path fill="none" stroke="black" d="M502.72,-703.08C502.72,-691.58 502.72,-679.17 502.72,-667.26"/>
<polygon fill="black" stroke="black" points="506.22,-666.95 502.72,-656.95 499.22,-666.95 506.22,-666.95"/>
</g>
<!-- &#45;&#45;2&#45;&#45; -->
<g id="node5" class="node">
<title>&#45;&#45;2&#45;&#45;</title>
<g id="a_node5"><a xlink:href="https://github.com/nihole/wg_examples/wiki/examples_nw_2" xlink:title="&#45;&#45;2&#45;&#45;&#10;Yesterday at 7 p.m.&#10;Eve came to Alice,&#10;rang the doorbell,&#10;but nobody opened">
<ellipse fill="none" stroke="red" cx="685.72" cy="-608.57" rx="87.86" ry="58.88"/>
<text text-anchor="middle" x="685.72" y="-634.87" font-family="Times,serif" font-size="14.00">&#45;&#45;2&#45;&#45;</text>
<text text-anchor="middle" x="685.72" y="-619.87" font-family="Times,serif" font-size="14.00">Yesterday at 7 p.m.</text>
<text text-anchor="middle" x="685.72" y="-604.87" font-family="Times,serif" font-size="14.00">Eve came to Alice,</text>
<text text-anchor="middle" x="685.72" y="-589.87" font-family="Times,serif" font-size="14.00">rang the doorbell,</text>
<text text-anchor="middle" x="685.72" y="-574.87" font-family="Times,serif" font-size="14.00">but nobody opened</text>
</a>
</g>
</g>
<!-- ++0++&#45;&gt;&#45;&#45;2&#45;&#45; -->
<g id="edge2" class="edge">
<title>++0++&#45;&gt;&#45;&#45;2&#45;&#45;</title>
<path fill="none" stroke="black" stroke-dasharray="1,5" d="M549.85,-714.09C571.35,-697.55 597.17,-677.69 620.5,-659.74"/>
<polygon fill="black" stroke="black" points="622.85,-662.35 628.64,-653.48 618.58,-656.81 622.85,-662.35"/>
</g>
<!-- ++5++ -->
<g id="node12" class="node">
<title>++5++</title>
<g id="a_node12"><a xlink:href="https://github.com/nihole/wg_examples/wiki/examples_pw_5" xlink:title="++5++&#10;The surveillance camera&#10;shows that Alice went&#10;home at 5 pm and did not&#10;leave until the next&#10;morning">
<ellipse fill="none" stroke="blue" cx="111.72" cy="-444.58" rx="111.95" ry="69.09"/>
<text text-anchor="middle" x="111.72" y="-478.38" font-family="Times,serif" font-size="14.00">++5++</text>
<text text-anchor="middle" x="111.72" y="-463.38" font-family="Times,serif" font-size="14.00">The surveillance camera</text>
<text text-anchor="middle" x="111.72" y="-448.38" font-family="Times,serif" font-size="14.00">shows that Alice went</text>
<text text-anchor="middle" x="111.72" y="-433.38" font-family="Times,serif" font-size="14.00">home at 5 pm and did not</text>
<text text-anchor="middle" x="111.72" y="-418.38" font-family="Times,serif" font-size="14.00">leave until the next</text>
<text text-anchor="middle" x="111.72" y="-403.38" font-family="Times,serif" font-size="14.00">morning</text>
</a>
</g>
</g>
<!-- &#45;&#45;0&#45;&#45;&#45;&gt;++5++ -->
<g id="edge4" class="edge">
<title>&#45;&#45;0&#45;&#45;&#45;&gt;++5++</title>
<path fill="none" stroke="black" d="M271.99,-569.79C247.28,-550.65 216.7,-526.95 188.9,-505.4"/>
<polygon fill="black" stroke="black" points="190.8,-502.45 180.76,-499.09 186.52,-507.98 190.8,-502.45"/>
</g>
<!-- ++6++ -->
<g id="node15" class="node">
<title>++6++</title>
<g id="a_node15"><a xlink:href="https://github.com/nihole/wg_examples/wiki/examples_pw_6" xlink:title="++6++&#10;Alice says that&#10;she was that time&#10;at home">
<ellipse fill="none" stroke="blue" cx="320.72" cy="-444.58" rx="79.39" ry="48.17"/>
<text text-anchor="middle" x="320.72" y="-463.38" font-family="Times,serif" font-size="14.00">++6++</text>
<text text-anchor="middle" x="320.72" y="-448.38" font-family="Times,serif" font-size="14.00">Alice says that</text>
<text text-anchor="middle" x="320.72" y="-433.38" font-family="Times,serif" font-size="14.00">she was that time</text>
<text text-anchor="middle" x="320.72" y="-418.38" font-family="Times,serif" font-size="14.00">at home</text>
</a>
</g>
</g>
<!-- &#45;&#45;0&#45;&#45;&#45;&gt;++6++ -->
<g id="edge5" class="edge">
<title>&#45;&#45;0&#45;&#45;&#45;&gt;++6++</title>
<path fill="none" stroke="black" d="M320.72,-560.28C320.72,-542.39 320.72,-521.84 320.72,-503.12"/>
<polygon fill="black" stroke="black" points="324.22,-502.93 320.72,-492.93 317.22,-502.93 324.22,-502.93"/>
</g>
<!-- ++1++ -->
<g id="node4" class="node">
<title>++1++</title>
<g id="a_node4"><a xlink:href="https://github.com/nihole/wg_examples/wiki/examples_pw_1" xlink:title="++1++&#10;Alice was not at&#10;the theater yesterday&#10;at 7 p.m.">
<ellipse fill="none" stroke="blue" cx="508.72" cy="-444.58" rx="91.43" ry="48.17"/>
<text text-anchor="middle" x="508.72" y="-463.38" font-family="Times,serif" font-size="14.00">++1++</text>
<text text-anchor="middle" x="508.72" y="-448.38" font-family="Times,serif" font-size="14.00">Alice was not at</text>
<text text-anchor="middle" x="508.72" y="-433.38" font-family="Times,serif" font-size="14.00">the theater yesterday</text>
<text text-anchor="middle" x="508.72" y="-418.38" font-family="Times,serif" font-size="14.00">at 7 p.m.</text>
</a>
</g>
</g>
<!-- &#45;&#45;1&#45;&#45;&#45;&gt;++1++ -->
<g id="edge6" class="edge">
<title>&#45;&#45;1&#45;&#45;&#45;&gt;++1++</title>
<path fill="none" stroke="red" d="M504.85,-550.1C505.42,-534.89 506.02,-518.47 506.59,-503.25"/>
<polygon fill="red" stroke="red" points="501.35,-550.16 504.47,-560.28 508.34,-550.42 501.35,-550.16"/>
<polygon fill="red" stroke="red" points="510.1,-503.05 506.97,-492.93 503.1,-502.79 510.1,-503.05"/>
</g>
<!-- &#45;&#45;3&#45;&#45; -->
<g id="node6" class="node">
<title>&#45;&#45;3&#45;&#45;</title>
<g id="a_node6"><a xlink:href="https://github.com/nihole/wg_examples/wiki/examples_nw_3" xlink:title="&#45;&#45;3&#45;&#45;&#10;Bob saw her at&#10;the theater yesterday&#10;at 7 p.m.">
<ellipse fill="none" stroke="red" cx="489.72" cy="-291.2" rx="91.43" ry="48.17"/>
<text text-anchor="middle" x="489.72" y="-310" font-family="Times,serif" font-size="14.00">&#45;&#45;3&#45;&#45;</text>
<text text-anchor="middle" x="489.72" y="-295" font-family="Times,serif" font-size="14.00">Bob saw her at</text>
<text text-anchor="middle" x="489.72" y="-280" font-family="Times,serif" font-size="14.00">the theater yesterday</text>
<text text-anchor="middle" x="489.72" y="-265" font-family="Times,serif" font-size="14.00">at 7 p.m.</text>
</a>
</g>
</g>
<!-- ++1++&#45;&gt;&#45;&#45;3&#45;&#45; -->
<g id="edge7" class="edge">
<title>++1++&#45;&gt;&#45;&#45;3&#45;&#45;</title>
<path fill="none" stroke="black" d="M502.82,-396.52C500.94,-381.56 498.84,-364.86 496.89,-349.29"/>
<polygon fill="black" stroke="black" points="500.34,-348.73 495.63,-339.24 493.4,-349.6 500.34,-348.73"/>
</g>
<!-- &#45;&#45;4&#45;&#45; -->
<g id="node9" class="node">
<title>&#45;&#45;4&#45;&#45;</title>
<g id="a_node9"><a xlink:href="https://github.com/nihole/wg_examples/wiki/examples_nw_4" xlink:title="&#45;&#45;4&#45;&#45;&#10;Mike saw her at&#10;the theater yesterday&#10;at 7 p.m.">
<ellipse fill="none" stroke="red" cx="689.72" cy="-291.2" rx="91.43" ry="48.17"/>
<text text-anchor="middle" x="689.72" y="-310" font-family="Times,serif" font-size="14.00">&#45;&#45;4&#45;&#45;</text>
<text text-anchor="middle" x="689.72" y="-295" font-family="Times,serif" font-size="14.00">Mike saw her at</text>
<text text-anchor="middle" x="689.72" y="-280" font-family="Times,serif" font-size="14.00">the theater yesterday</text>
<text text-anchor="middle" x="689.72" y="-265" font-family="Times,serif" font-size="14.00">at 7 p.m.</text>
</a>
</g>
</g>
<!-- ++1++&#45;&gt;&#45;&#45;4&#45;&#45; -->
<g id="edge8" class="edge">
<title>++1++&#45;&gt;&#45;&#45;4&#45;&#45;</title>
<path fill="none" stroke="black" d="M556.75,-403.41C580.47,-383.57 609.23,-359.53 633.92,-338.87"/>
<polygon fill="black" stroke="black" points="636.36,-341.4 641.78,-332.3 631.87,-336.03 636.36,-341.4"/>
</g>
<!-- ++10++ -->
<g id="node7" class="node">
<title>++10++</title>
<g id="a_node7"><a xlink:href="https://github.com/nihole/wg_examples/wiki/examples_pw_10" xlink:title="++10++&#10;Bob is lying">
<ellipse fill="none" stroke="blue" cx="489.72" cy="-159.04" rx="58.88" ry="26.74"/>
<text text-anchor="middle" x="489.72" y="-162.84" font-family="Times,serif" font-size="14.00">++10++</text>
<text text-anchor="middle" x="489.72" y="-147.84" font-family="Times,serif" font-size="14.00">Bob is lying</text>
</a>
</g>
</g>
<!-- &#45;&#45;3&#45;&#45;&#45;&gt;++10++ -->
<g id="edge9" class="edge">
<title>&#45;&#45;3&#45;&#45;&#45;&gt;++10++</title>
<path fill="none" stroke="black" d="M489.72,-242.84C489.72,-227.4 489.72,-210.52 489.72,-196.05"/>
<polygon fill="black" stroke="black" points="493.22,-195.99 489.72,-185.99 486.22,-195.99 493.22,-195.99"/>
</g>
<!-- &#45;&#45;10&#45;&#45; -->
<g id="node8" class="node">
<title>&#45;&#45;10&#45;&#45;</title>
<g id="a_node8"><a xlink:href="https://github.com/nihole/wg_examples/wiki/examples_nw_10" xlink:title="&#45;&#45;10&#45;&#45;&#10;Bob is telling&#10;the truth">
<ellipse fill="none" stroke="red" cx="489.72" cy="-37.48" rx="63.78" ry="37.45"/>
<text text-anchor="middle" x="489.72" y="-48.78" font-family="Times,serif" font-size="14.00">&#45;&#45;10&#45;&#45;</text>
<text text-anchor="middle" x="489.72" y="-33.78" font-family="Times,serif" font-size="14.00">Bob is telling</text>
<text text-anchor="middle" x="489.72" y="-18.78" font-family="Times,serif" font-size="14.00">the truth</text>
</a>
</g>
</g>
<!-- ++10++&#45;&gt;&#45;&#45;10&#45;&#45; -->
<g id="edge10" class="edge">
<title>++10++&#45;&gt;&#45;&#45;10&#45;&#45;</title>
<path fill="none" stroke="red" d="M489.72,-121.82C489.72,-110.42 489.72,-97.65 489.72,-85.61"/>
<polygon fill="red" stroke="red" points="486.22,-122.09 489.72,-132.09 493.22,-122.09 486.22,-122.09"/>
<polygon fill="red" stroke="red" points="493.22,-85.26 489.72,-75.26 486.22,-85.26 493.22,-85.26"/>
</g>
<!-- ++11++ -->
<g id="node10" class="node">
<title>++11++</title>
<g id="a_node10"><a xlink:href="https://github.com/nihole/wg_examples/wiki/examples_pw_11" xlink:title="++11++&#10;Mike was mistaken&#10;and mistake another&#10;girl for Alice">
<ellipse fill="none" stroke="blue" cx="689.72" cy="-159.04" rx="89.61" ry="48.17"/>
<text text-anchor="middle" x="689.72" y="-177.84" font-family="Times,serif" font-size="14.00">++11++</text>
<text text-anchor="middle" x="689.72" y="-162.84" font-family="Times,serif" font-size="14.00">Mike was mistaken</text>
<text text-anchor="middle" x="689.72" y="-147.84" font-family="Times,serif" font-size="14.00">and mistake another</text>
<text text-anchor="middle" x="689.72" y="-132.84" font-family="Times,serif" font-size="14.00">girl for Alice</text>
</a>
</g>
</g>
<!-- &#45;&#45;4&#45;&#45;&#45;&gt;++11++ -->
<g id="edge11" class="edge">
<title>&#45;&#45;4&#45;&#45;&#45;&gt;++11++</title>
<path fill="none" stroke="black" d="M689.72,-242.84C689.72,-234.57 689.72,-225.89 689.72,-217.39"/>
<polygon fill="black" stroke="black" points="693.22,-217.14 689.72,-207.14 686.22,-217.14 693.22,-217.14"/>
</g>
<!-- &#45;&#45;11&#45;&#45; -->
<g id="node11" class="node">
<title>&#45;&#45;11&#45;&#45;</title>
<g id="a_node11"><a xlink:href="https://github.com/nihole/wg_examples/wiki/examples_nw_11" xlink:title="&#45;&#45;11&#45;&#45;&#10;">
<ellipse fill="none" stroke="red" cx="689.72" cy="-37.48" rx="31.4" ry="18"/>
<text text-anchor="middle" x="689.72" y="-33.78" font-family="Times,serif" font-size="14.00">&#45;&#45;11&#45;&#45;</text>
</a>
</g>
</g>
<!-- ++11++&#45;&gt;&#45;&#45;11&#45;&#45; -->
<g id="edge12" class="edge">
<title>++11++&#45;&gt;&#45;&#45;11&#45;&#45;</title>
<path fill="none" stroke="red" d="M689.72,-100.63C689.72,-88.45 689.72,-76.13 689.72,-65.71"/>
<polygon fill="red" stroke="red" points="686.22,-100.78 689.72,-110.78 693.22,-100.78 686.22,-100.78"/>
<polygon fill="red" stroke="red" points="693.22,-65.62 689.72,-55.62 686.22,-65.62 693.22,-65.62"/>
</g>
<!-- &#45;&#45;12&#45;&#45; -->
<g id="node13" class="node">
<title>&#45;&#45;12&#45;&#45;</title>
<g id="a_node13"><a xlink:href="https://github.com/nihole/wg_examples/wiki/examples_nw_12" xlink:title="&#45;&#45;12&#45;&#45;&#10;Alice went out&#10;and went in through&#10;the window">
<ellipse fill="none" stroke="red" cx="111.72" cy="-291.2" rx="89.19" ry="48.17"/>
<text text-anchor="middle" x="111.72" y="-310" font-family="Times,serif" font-size="14.00">&#45;&#45;12&#45;&#45;</text>
<text text-anchor="middle" x="111.72" y="-295" font-family="Times,serif" font-size="14.00">Alice went out</text>
<text text-anchor="middle" x="111.72" y="-280" font-family="Times,serif" font-size="14.00">and went in through</text>
<text text-anchor="middle" x="111.72" y="-265" font-family="Times,serif" font-size="14.00">the window</text>
</a>
</g>
</g>
<!-- ++5++&#45;&gt;&#45;&#45;12&#45;&#45; -->
<g id="edge13" class="edge">
<title>++5++&#45;&gt;&#45;&#45;12&#45;&#45;</title>
<path fill="none" stroke="black" d="M111.72,-374.98C111.72,-366.41 111.72,-357.73 111.72,-349.36"/>
<polygon fill="black" stroke="black" points="115.22,-349.35 111.72,-339.35 108.22,-349.35 115.22,-349.35"/>
</g>
<!-- ++12++ -->
<g id="node14" class="node">
<title>++12++</title>
<g id="a_node14"><a xlink:href="https://github.com/nihole/wg_examples/wiki/examples_pw_12" xlink:title="++12++&#10;">
<ellipse fill="none" stroke="blue" cx="111.72" cy="-159.04" rx="40.89" ry="18"/>
<text text-anchor="middle" x="111.72" y="-155.34" font-family="Times,serif" font-size="14.00">++12++</text>
</a>
</g>
</g>
<!-- &#45;&#45;12&#45;&#45;&#45;&gt;++12++ -->
<g id="edge14" class="edge">
<title>&#45;&#45;12&#45;&#45;&#45;&gt;++12++</title>
<path fill="none" stroke="red" d="M111.72,-232.72C111.72,-216.93 111.72,-200.53 111.72,-187.32"/>
<polygon fill="red" stroke="red" points="108.22,-232.84 111.72,-242.84 115.22,-232.84 108.22,-232.84"/>
<polygon fill="red" stroke="red" points="115.22,-187.05 111.72,-177.05 108.22,-187.05 115.22,-187.05"/>
</g>
<!-- &#45;&#45;13&#45;&#45; -->
<g id="node16" class="node">
<title>&#45;&#45;13&#45;&#45;</title>
<g id="a_node16"><a xlink:href="https://github.com/nihole/wg_examples/wiki/examples_nw_13" xlink:title="&#45;&#45;13&#45;&#45;&#10;Alice is&#10;lying">
<ellipse fill="none" stroke="red" cx="320.72" cy="-291.2" rx="41.94" ry="37.45"/>
<text text-anchor="middle" x="320.72" y="-302.5" font-family="Times,serif" font-size="14.00">&#45;&#45;13&#45;&#45;</text>
<text text-anchor="middle" x="320.72" y="-287.5" font-family="Times,serif" font-size="14.00">Alice is</text>
<text text-anchor="middle" x="320.72" y="-272.5" font-family="Times,serif" font-size="14.00">lying</text>
</a>
</g>
</g>
<!-- ++6++&#45;&gt;&#45;&#45;13&#45;&#45; -->
<g id="edge15" class="edge">
<title>++6++&#45;&gt;&#45;&#45;13&#45;&#45;</title>
<path fill="none" stroke="black" d="M320.72,-396.1C320.72,-377.9 320.72,-357.15 320.72,-339.01"/>
<polygon fill="black" stroke="black" points="324.22,-338.95 320.72,-328.95 317.22,-338.95 324.22,-338.95"/>
</g>
<!-- ++13++ -->
<g id="node17" class="node">
<title>++13++</title>
<g id="a_node17"><a xlink:href="https://github.com/nihole/wg_examples/wiki/examples_pw_13" xlink:title="++13++&#10;">
<ellipse fill="none" stroke="blue" cx="320.72" cy="-159.04" rx="40.89" ry="18"/>
<text text-anchor="middle" x="320.72" y="-155.34" font-family="Times,serif" font-size="14.00">++13++</text>
</a>
</g>
</g>
<!-- &#45;&#45;13&#45;&#45;&#45;&gt;++13++ -->
<g id="edge16" class="edge">
<title>&#45;&#45;13&#45;&#45;&#45;&gt;++13++</title>
<path fill="none" stroke="red" d="M320.72,-243.33C320.72,-224.68 320.72,-203.86 320.72,-187.7"/>
<polygon fill="red" stroke="red" points="317.22,-243.6 320.72,-253.6 324.22,-243.6 317.22,-243.6"/>
<polygon fill="red" stroke="red" points="324.22,-187.34 320.72,-177.34 317.22,-187.34 324.22,-187.34"/>
</g>
</g>
</svg>
